<svg height="511pt" viewBox="-13 0 511 511.99986" width="511pt" xmlns="http://www.w3.org/2000/svg"><path d="m264.320312 477.941406c0 7.28125-2.976562 13.890625-7.777343 18.691406-4.789063 4.796876-11.410157 7.773438-18.6875 7.773438h-203.296875c-14.558594 0-26.464844-11.90625-26.464844-26.464844 0-7.277344 2.976562-13.886718 7.773438-18.6875 4.800781-4.796875 11.410156-7.773437 18.691406-7.773437h203.296875c14.265625 0 25.988281 11.429687 26.445312 25.59375.019531.28125.019531.574219.019531.867187zm0 0" fill="#edc472"/><path d="m299.792969 425.015625c0 7.269531-2.976563 13.890625-7.773438 18.6875-4.800781 4.800781-11.410156 7.777344-18.691406 7.777344h-203.308594c-14.558593 0-26.460937-11.917969-26.460937-26.464844 0-7.28125 2.976562-13.890625 7.773437-18.6875 4.789063-4.800781 11.410157-7.777344 18.6875-7.777344h203.308594c14.257813 0 25.988281 11.429688 26.445313 25.59375.019531.285157.019531.578125.019531.871094zm0 0" fill="#cc9f56"/><path d="m368.566406 372.058594c0 7.277344-2.976562 13.886718-7.777344 18.6875-4.796874 4.796875-11.410156 7.773437-18.6875 7.773437h-203.296874c-14.558594 0-26.464844-11.914062-26.464844-26.460937 0-7.28125 2.976562-13.902344 7.773437-18.691406 4.789063-4.796876 11.410157-7.773438 18.691407-7.773438h203.296874c14.265626 0 25.988282 11.429688 26.445313 25.59375.019531.28125.019531.574219.019531.871094zm0 0" fill="#edc472"/><path d="m321.660156 319.097656c0 7.269532-2.976562 13.890625-7.773437 18.691406-4.789063 4.796876-11.410157 7.773438-18.6875 7.773438h-203.3125c-14.546875 0-26.460938-11.917969-26.460938-26.464844 0-7.277344 2.976563-13.890625 7.773438-18.6875 4.800781-4.800781 11.410156-7.777344 18.6875-7.777344h203.3125c14.261719 0 25.988281 11.429688 26.441406 25.59375.019531.285157.019531.578126.019531.871094zm0 0" fill="#cc9f56"/><path d="m280.265625 266.230469c0 7.269531-2.976563 13.890625-7.777344 18.679687-4.796875 4.796875-11.410156 7.773438-18.6875 7.773438h-203.300781c-14.554688 0-26.460938-11.90625-26.460938-26.453125 0-7.277344 2.976563-13.890625 7.773438-18.6875 4.789062-4.800781 11.410156-7.777344 18.6875-7.777344h203.300781c14.265625 0 25.988281 11.429687 26.445313 25.59375.019531.285156.019531.578125.019531.871094zm0 0" fill="#edc472"/><path d="m273.21875 213.292969c0 7.277343-2.976562 13.898437-7.777344 18.6875-4.796875 4.800781-11.417968 7.777343-18.6875 7.777343h-203.308594c-14.558593 0-26.464843-11.90625-26.464843-26.464843 0-7.277344 2.976562-13.898438 7.777343-18.6875 4.796876-4.800781 11.410157-7.777344 18.6875-7.777344h203.308594c14.253906 0 25.988282 11.429687 26.445313 25.59375.019531.285156.019531.578125.019531.871094zm0 0" fill="#cc9f56"/><path d="m354.140625 160.335938c0 7.277343-2.976563 13.890624-7.777344 18.6875-4.789062 4.796874-11.410156 7.773437-18.6875 7.773437h-203.300781c-14.558594 0-26.460938-11.902344-26.460938-26.460937 0-7.269532 2.976563-13.890626 7.773438-18.691407 4.796875-4.796875 11.410156-7.773437 18.6875-7.773437h203.300781c14.265625 0 25.988281 11.441406 26.441407 25.59375.023437.292968.023437.578125.023437.871094zm0 0" fill="#edc472"/><path d="m325.457031 107.375c0 7.28125-2.976562 13.902344-7.773437 18.691406-4.800782 4.796875-11.410156 7.773438-18.691406 7.773438h-203.308594c-14.546875 0-26.460938-11.90625-26.460938-26.464844 0-7.277344 2.976563-13.886719 7.773438-18.6875 4.800781-4.796875 11.421875-7.773438 18.6875-7.773438h203.308594c14.265624 0 25.988281 11.4375 26.445312 25.589844.019531.285156.019531.578125.019531.871094zm0 0" fill="#cc9f56"/><path d="m264.300781 477.074219h-196.34375c-14.257812 0-25.988281-11.433594-26.445312-25.59375h196.34375c14.265625 0 25.988281 11.429687 26.445312 25.59375zm0 0" fill="#ffde91"/><path d="m299.773438 424.144531h-196.34375c-14.265626 0-25.988282-11.441406-26.445313-25.59375h196.34375c14.257813 0 25.988281 11.429688 26.445313 25.59375zm0 0" fill="#dbad5c"/><path d="m368.546875 371.1875h-196.34375c-14.257813 0-25.988281-11.429688-26.445313-25.59375h196.34375c14.265626 0 25.988282 11.429688 26.445313 25.59375zm0 0" fill="#ffde91"/><path d="m321.640625 318.226562h-196.34375c-14.253906 0-25.988281-11.429687-26.441406-25.59375h196.34375c14.261719 0 25.988281 11.429688 26.441406 25.59375zm0 0" fill="#dbad5c"/><path d="m280.246094 265.359375h-196.34375c-14.257813 0-25.988282-11.4375-26.445313-25.59375h196.34375c14.265625 0 25.988281 11.429687 26.445313 25.59375zm0 0" fill="#ffde91"/><path d="m273.199219 212.421875h-196.34375c-14.265625 0-25.988281-11.429687-26.445313-25.59375h196.34375c14.253906 0 25.988282 11.429687 26.445313 25.59375zm0 0" fill="#dbad5c"/><path d="m354.117188 159.464844h-196.34375c-14.253907 0-25.988282-11.429688-26.441407-25.59375h196.34375c14.265625 0 25.988281 11.441406 26.441407 25.59375zm0 0" fill="#ffde91"/><path d="m325.4375 106.503906h-196.34375c-14.253906 0-25.988281-11.429687-26.445312-25.589844h196.34375c14.265624 0 25.988281 11.4375 26.445312 25.589844zm0 0" fill="#dbad5c"/><path d="m472.144531 477.941406c0 7.28125-2.976562 13.890625-7.777343 18.691406-4.789063 4.796876-11.410157 7.773438-18.6875 7.773438h-203.308594c-14.546875 0-26.453125-11.90625-26.453125-26.464844 0-7.277344 2.976562-13.886718 7.773437-18.6875 4.789063-4.796875 11.398438-7.773437 18.679688-7.773437h203.308594c14.246093 0 25.949218 11.398437 26.445312 25.519531.007812.316406.019531.628906.019531.941406zm0 0" fill="#ffe89c"/><path d="m441.054688 425.015625c0 7.269531-2.976563 13.890625-7.777344 18.6875-4.796875 4.800781-11.417969 7.777344-18.6875 7.777344h-203.308594c-14.558594 0-26.464844-11.917969-26.464844-26.464844 0-7.28125 2.976563-13.890625 7.773438-18.6875 4.800781-4.800781 11.410156-7.777344 18.691406-7.777344h203.308594c14.234375 0 25.945312 11.398438 26.441406 25.523438.011719.3125.023438.625.023438.941406zm0 0" fill="#edc472"/><path d="m478.351562 372.058594c0 7.277344-2.976562 13.886718-7.777343 18.6875-4.796875 4.796875-11.410157 7.773437-18.6875 7.773437h-203.308594c-14.550781 0-26.464844-11.914062-26.464844-26.460937 0-7.28125 2.976563-13.902344 7.773438-18.691406 4.800781-4.796876 11.421875-7.773438 18.691406-7.773438h203.308594c14.242187 0 25.945312 11.398438 26.441406 25.519531.011719.316407.023437.628907.023437.945313zm0 0" fill="#ffe89c"/><path d="m441.054688 319.097656c0 7.269532-2.976563 13.890625-7.777344 18.691406-4.796875 4.796876-11.417969 7.773438-18.6875 7.773438h-203.308594c-14.558594 0-26.464844-11.917969-26.464844-26.464844 0-7.277344 2.976563-13.890625 7.773438-18.6875 4.800781-4.800781 11.410156-7.777344 18.691406-7.777344h203.308594c14.234375 0 25.945312 11.402344 26.441406 25.523438.011719.3125.023438.628906.023438.941406zm0 0" fill="#edc472"/><path d="m415.582031 246.46875c-23.144531 25.210938-53.261719 40.191406-84.6875 44.707031-40.890625 5.871094-83.988281-5.984375-116.789062-36.089843-58.019531-53.261719-61.867188-143.46875-8.617188-201.476563 33.085938-36.03125 80.414063-51.167969 125.4375-44.707031 27.457031 3.9375 54.0625 15.914062 76.039063 36.089844 58.011718 53.261718 61.867187 143.46875 8.617187 201.476562zm0 0" fill="#ffe89c"/><path d="m415.582031 246.46875c-23.144531 25.210938-53.261719 40.191406-84.6875 44.707031-27.457031-3.9375-54.0625-15.914062-76.039062-36.089843-58.023438-53.261719-61.878907-143.46875-8.617188-201.476563 23.144531-25.210937 53.261719-40.191406 84.6875-44.707031 27.457031 3.9375 54.0625 15.914062 76.039063 36.089844 58.011718 53.261718 61.867187 143.46875 8.617187 201.476562zm0 0" fill="#fcf2b6"/><path d="m411.722656 164.757812c-6.5 44.707032-41.183594 78.503907-83.417968 85.964844-10.449219 1.863282-21.363282 2.09375-32.429688.484375-28.253906-4.101562-53.6875-19.996093-69.773438-43.59375-14.445312-21.1875-20.371093-46.851562-16.683593-72.253906 3.925781-27.019531 18.140625-50.894531 40.019531-67.222656 21.886719-16.332031 48.816406-23.152344 75.839844-19.226563.960937.140625 1.921875.292969 2.875.457032 27.089844 4.738281 51.347656 20.339843 66.898437 43.136718 14.445313 21.191406 20.367188 46.855469 16.671875 72.253906zm0 0" fill="#dbad5c"/><path d="m411.722656 164.757812c-6.5 44.707032-41.183594 78.503907-83.417968 85.964844-27.054688-4.757812-51.257813-20.351562-66.769532-43.109375-14.445312-21.1875-20.367187-46.851562-16.683594-72.253906 3.925782-27.019531 18.140626-50.894531 40.019532-67.222656 13-9.6875 27.769531-16.035157 43.28125-18.769531 27.089844 4.738281 51.347656 20.339843 66.898437 43.136718 14.445313 21.191406 20.367188 46.855469 16.671875 72.253906zm0 0" fill="#edc472"/><path d="m472.125 477h-198.269531c-14.234375 0-25.945313-11.398438-26.441407-25.519531h198.265626c14.246093 0 25.949218 11.398437 26.445312 25.519531zm0 0" fill="#fcf2b6"/><path d="m441.03125 424.074219h-198.265625c-14.246094 0-25.949219-11.398438-26.445313-25.523438h198.269532c14.234375 0 25.945312 11.398438 26.441406 25.523438zm0 0" fill="#ffde91"/><path d="m478.328125 371.113281h-198.265625c-14.246094 0-25.949219-11.398437-26.445312-25.519531h198.269531c14.242187 0 25.945312 11.398438 26.441406 25.519531zm0 0" fill="#fcf2b6"/><path d="m441.03125 318.15625h-198.265625c-14.246094 0-25.949219-11.398438-26.445313-25.523438h198.269532c14.234375 0 25.945312 11.402344 26.441406 25.523438zm0 0" fill="#ffde91"/><path d="m232.101562 168.351562c0 4.195313 3.398438 7.59375 7.59375 7.59375h25.742188c9.550781 26.960938 33.550781 46.144532 61.589844 46.144532h11.902344c4.191406 0 7.589843-3.402344 7.589843-7.59375 0-4.195313-3.398437-7.59375-7.589843-7.59375h-11.902344c-19.691406 0-36.792969-12.597656-45.230469-30.957032h40.894531c4.195313 0 7.59375-3.398437 7.59375-7.59375 0-4.191406-3.398437-7.589843-7.59375-7.589843h-45.582031c-.90625-5.292969-1.074219-10.011719-.773437-14.777344h46.355468c4.195313 0 7.59375-3.398437 7.59375-7.589844 0-4.195312-3.398437-7.59375-7.59375-7.59375h-43.492187c7.070312-21.898437 25.839843-37.597656 47.828125-37.597656h11.902344c4.191406 0 7.589843-3.398437 7.589843-7.59375 0-4.191406-3.398437-7.59375-7.589843-7.59375h-11.902344c-30.292969 0-55.867188 22.386719-63.605469 52.785156h-23.726563c-4.195312 0-7.59375 3.398438-7.59375 7.59375 0 4.191407 3.398438 7.589844 7.59375 7.589844h21.425782c-.25 4.867187-.082032 9.671875.621094 14.777344h-22.046876c-4.195312 0-7.59375 3.398437-7.59375 7.589843zm0 0"/><path d="m445 443.886719h-2.074219c7.625-11.398438 7.644531-26.300781-.011719-37.773438h8.292969c19.058594 0 35.054688-15.59375 34.730469-34.648437-.316406-18.507813-15.46875-33.464844-34.050781-33.464844h-8.972657c15.054688-22.566406-1.171874-52.957031-28.324218-52.957031h-38.359375c62.371093-30.332031 95.894531-99.246094 80.992187-167.289063-.902344-4.101562-4.953125-6.691406-9.042968-5.792968-4.097657.890624-6.691407 4.941406-5.789063 9.042968 9.351563 42.734375-2.300781 87.539063-32.40625 120.332032-56.917969 62-155.941406 57.097656-206.570313-9.160157-.011718 0-.011718-.011719-.011718-.011719-8.753906-11.441406-15.609375-24.195312-20.328125-37.742187-.007813-.011719-.019531-.019531-.007813-.03125-6.15625-17.636719-8.40625-35.949219-7.25-52.925781-.011718-.011719-.011718-.019532 0-.03125.152344-2.390625 1.304688-14.667969 1.820313-15.1875 18.628906-104.921875 146.171875-147.292969 224.195312-75.65625 13.386719 12.28125 23.972657 26.820312 31.464844 43.191406 1.742187 3.816406 6.246094 5.484375 10.066406 3.746094 3.804688-1.742188 5.484375-6.246094 3.742188-10.066406-50.363281-110.015626-204.046875-117.933594-265.699219-14.140626h-85.722656c-18.769532 0-34.054688 15.277344-34.054688 34.054688 0 18.78125 15.285156 34.058594 34.054688 34.058594h.367187c-3.617187 5.417968-5.730469 11.914062-5.730469 18.902344 0 6.984374 2.113282 13.484374 5.730469 18.898437h-11.644531c-4.191406 0-7.59375 3.402344-7.59375 7.59375 0 4.195313 3.402344 7.59375 7.59375 7.59375h82.683594c4.128906 13.324219 10.101562 26.039063 17.738281 37.742187h-140.921875c-10.21875 0-18.933594-7.933593-19.320312-18.148437-.402344-10.734375 8.210937-19.59375 18.859374-19.59375h5.863282c4.191406 0 7.589844-3.398437 7.589844-7.59375 0-4.191406-3.398438-7.59375-7.589844-7.59375h-5.1875c-18.632813 0-34.324219 14.683594-34.722656 33.316406-.273438 12.730469 6.484374 23.9375 16.644531 30.011719-6.183594 6.382812-9.890625 15.15625-9.578125 24.789062.59375 18.472657 16.21875 32.925782 34.699218 32.925782h12.347657c-14.953125 22.515625 1.234375 52.878906 28.375 52.878906h18.589843c-7.582031 11.367188-7.703124 26.261719 0 37.800781h-40.457031c-27.191406 0-43.359375 30.445313-28.335937 52.929688h-6.449219c-19.054687 0-35.054687 15.59375-34.730469 34.648437.316406 18.507813 15.46875 33.464844 34.054688 33.464844h411.121094c18.582031 0 33.734374-14.957031 34.050781-33.464844.328125-19.054687-15.671875-34.648437-34.730469-34.648437zm-320.625-264.679688c-10.40625 0-18.871094-8.464843-18.871094-18.871093 0-10.410157 8.464844-18.871094 18.871094-18.871094h36.214844c-.71875 12.59375.160156 25.246094 2.632812 37.742187zm37.855469-52.960937h-66.546875c-10.394532 0-18.871094-8.460938-18.871094-18.871094 0-10.394531 8.476562-18.871094 18.871094-18.871094h77.824218c-5.394531 12-9.191406 24.671875-11.277343 37.742188zm289.65625 226.941406c10.40625 0 18.871093 8.460938 18.871093 18.871094 0 10.394531-8.464843 18.867187-18.871093 18.867187h-203.308594c-10.410156 0-18.871094-8.472656-18.871094-18.867187 0-10.410156 8.460938-18.871094 18.871094-18.871094zm-231.65625 37.738281h-81.425781c-10.410157 0-18.871094-8.472656-18.871094-18.867187 0-10.410156 8.460937-18.871094 18.871094-18.871094h81.425781c-7.613281 11.417969-7.613281 26.320312 0 37.738281zm-8.949219 15.21875h203.308594c10.40625 0 18.871094 8.464844 18.871094 18.871094 0 10.398437-8.464844 18.871094-18.871094 18.871094h-203.308594c-10.410156 0-18.871094-8.472657-18.871094-18.871094 0-10.40625 8.460938-18.871094 18.871094-18.871094zm203.308594-105.917969c10.40625 0 18.871094 8.464844 18.871094 18.871094s-8.464844 18.871094-18.871094 18.871094h-203.308594c-10.410156 0-18.871094-8.464844-18.871094-18.871094 0-10.074218 7.925782-18.292968 17.867188-18.820312 85.222656 0 18.355468-.050782 204.3125-.050782zm-364.089844-15.132812c-10.40625 0-18.867188-8.464844-18.867188-18.863281 0-10.40625 8.460938-18.871094 18.867188-18.871094h145.664062c12.867188 15.167969 29.308594 28.296875 48.523438 37.683594-64.519531 0-178.707031.050781-194.1875.050781zm41.386719 52.875c-10.394531 0-18.871094-8.464844-18.871094-18.871094 0-9.960937 7.765625-18.140625 17.546875-18.820312h92.339844c-7.472656 11.25-7.683594 26.121094.03125 37.691406zm-21.867188 68.175781h112.914063c-7.613282 11.417969-7.625 26.3125 0 37.742188h-112.914063c-10.40625 0-18.871093-8.472657-18.871093-18.871094 0-10.40625 8.464843-18.871094 18.871093-18.871094zm144.015625 90.667969h-179.476562c-10.410156 0-18.871094-8.460938-18.871094-18.871094 0-10.40625 8.460938-18.871094 18.871094-18.871094h179.476562c-7.625 11.429688-7.613281 26.324219 0 37.742188zm231.644532 0c-217.816407 0-203.855469.074219-205.566407-.140625-9.34375-1.113281-16.601562-9.089844-16.601562-18.730469 0-9.636718 7.257812-17.613281 16.601562-18.726562 1.75-.214844-11.683593-.144532 205.566407-.144532 10.40625 0 18.871093 8.464844 18.871093 18.871094 0 10.410156-8.464843 18.871094-18.871093 18.871094zm0 0"/><path d="m215.929688 110.597656c-3.980469-1.3125-8.277344.851563-9.59375 4.832032-21.683594 65.714843 21.597656 133.582031 88.445312 143.296874 94.183594 13.6875 160.253906-91.707031 106.539062-170.5-42.832031-62.824218-135.691406-64.425781-180.292968-1.816406-2.429688 3.414063-1.636719 8.15625 1.78125 10.589844 3.414062 2.433594 8.15625 1.636719 10.589844-1.78125 38.507812-54.050781 118.515624-52.5 155.375 1.5625 46.109374 67.640625-10.488282 158.726562-91.808594 146.914062-57.609375-8.371093-94.902344-66.855468-76.207032-123.507812 1.316407-3.980469-.847656-8.273438-4.828124-9.589844zm0 0"/></svg>